<?xml version="1.0" encoding="UTF-8"?>
<svg id="Layer_2" data-name="Layer 2" xmlns="http://www.w3.org/2000/svg" xmlns:xlink="http://www.w3.org/1999/xlink" viewBox="0 0 187.68 74.98">
  <defs>
    <style>
      .cls-1 {
        fill: #241e33;
      }

      .cls-2 {
        fill: url(#_ÂÁ_Ï_ÌÌ_È_ËÂÌÚ_9-2);
      }

      .cls-3 {
        fill: url(#_ÂÁ_Ï_ÌÌ_È_ËÂÌÚ_9);
      }

      .cls-4 {
        fill: url(#_ÂÁ_Ï_ÌÌ_È_ËÂÌÚ_3);
      }

      .cls-5 {
        fill: #fff;
      }

      .cls-6 {
        fill: #3c354f;
      }
    </style>
    <radialGradient id="_ÂÁ_Ï_ÌÌ_È_ËÂÌÚ_3" data-name="¡ÂÁ˚ÏˇÌÌ˚È „‡‰ËÂÌÚ 3" cx="59873.76" cy="1968.34" fx="59873.76" fy="1968.34" r="497.22" gradientTransform="translate(-5292.44 277.76) scale(.09 -.1)" gradientUnits="userSpaceOnUse">
      <stop offset="0" stop-color="#241883"/>
      <stop offset=".35" stop-color="#241a60"/>
      <stop offset=".75" stop-color="#241d3f"/>
      <stop offset=".97" stop-color="#241e33"/>
    </radialGradient>
    <linearGradient id="_ÂÁ_Ï_ÌÌ_È_ËÂÌÚ_9" data-name="¡ÂÁ˚ÏˇÌÌ˚È „‡‰ËÂÌÚ 9" x1="8113.65" y1="-381.23" x2="7942.63" y2="-381.23" gradientTransform="translate(-7948.86 -343.74) scale(1 -1)" gradientUnits="userSpaceOnUse">
      <stop offset=".03" stop-color="#4d86ff"/>
      <stop offset=".17" stop-color="#597ef9"/>
      <stop offset=".43" stop-color="#7a69eb"/>
      <stop offset=".77" stop-color="#b048d4"/>
      <stop offset="1" stop-color="#d730c4"/>
    </linearGradient>
    <linearGradient id="_ÂÁ_Ï_ÌÌ_È_ËÂÌÚ_9-2" data-name="¡ÂÁ˚ÏˇÌÌ˚È „‡‰ËÂÌÚ 9" x1="8145.01" y1="-381.23" x2="8019.83" y2="-381.23" xlink:href="#_ÂÁ_Ï_ÌÌ_È_ËÂÌÚ_9"/>
  </defs>
  <g id="Layer_1-2" data-name="Layer 1">
    <g>
      <polygon class="cls-6" points="177.42 74.98 10.26 74.98 .4 61.88 0 61.35 0 13.63 10.26 0 177.42 0 187.28 13.1 187.68 13.63 187.68 61.35 177.42 74.98"/>
      <polygon class="cls-1" points="11.54 2.57 2.57 14.49 2.57 60.49 11.54 72.41 176.14 72.41 185.11 60.49 185.11 14.49 176.14 2.57 11.54 2.57"/>
      <path class="cls-4" d="M66.86,72.41c1.81-19.25,30.19-35.89,53.04-35.89s51.73,16.64,53.54,35.89h-106.58Z"/>
      <path class="cls-3" d="M185.69,60.68V14.3s-9.26-12.3-9.26-12.3H11.26S2,14.3,2,14.3v46.38s9.26,12.3,9.26,12.3h165.17s9.26-12.3,9.26-12.3ZM184.54,60.3l-8.69,11.54H63.4s-8.57-11.38-8.57-11.38V14.52s8.57-11.38,8.57-11.38h112.45s8.69,11.54,8.69,11.54v45.62Z"/>
      <path class="cls-2" d="M173.99,70.08l8.14-10.69V15.59s-8.14-10.69-8.14-10.69h-109s-8.04,10.55-8.04,10.55v44.09s8.04,10.55,8.04,10.55h109ZM181.37,59.14l-7.76,10.19h-108.24s-7.65-10.04-7.65-10.04V15.7s7.65-10.04,7.65-10.04h108.24s7.76,10.19,7.76,10.19v43.29Z"/>
    </g>
    <g>
      <path class="cls-5" d="M12.52,38.19l.05,14.97c.27.63.7.94,1.38,1.01,3.21.32,6.94-.24,10.21,0,.29-.03.7-.18.92-.37.11-.09.51-.71.51-.78v-9.17h5.89v9.17c0,.08.39.69.51.78.22.19.63.34.92.37,3.27-.24,7,.32,10.21,0,.68-.07,1.11-.38,1.38-1.01l.04-14.89-15.98-12.39-16.05,12.32Z"/>
      <path class="cls-5" d="M48.69,33.92l-19.24-14.83c-.37-.21-.68-.38-1.12-.31-.19.03-.41.16-.59.24l-19.35,14.91c-1.35,1.38.5,3.4,2,2.19l18.12-13.92c.18-.02.83.53,1.03.68,5.99,4.42,11.67,9.28,17.74,13.57,1.51.3,2.49-1.36,1.41-2.52Z"/>
    </g>
    <g>
      <path class="cls-5" d="M102.11,11.2c.93,0,1.5.29,2.1,1.39l6.05,10.98c.13.24.07.42-.22.42h-2.32c-.24,0-.33-.05-.42-.24l-1.3-2.36h-8.58l-1.26,2.36c-.09.18-.2.24-.42.24h-2.37c-.31,0-.37-.18-.24-.42l5.99-10.98c.6-1.1,1.15-1.39,1.92-1.39h1.08ZM98.57,19.27h6.28l-2.9-5.35c-.05-.09-.11-.13-.2-.13h-.11c-.09,0-.15.04-.2.13l-2.87,5.35Z"/>
      <path class="cls-5" d="M115.07,11.2c1.17,0,1.42.15,2.12,1.08l6.79,8.91c.05.09.13.13.24.13h.16c.09,0,.15-.05.15-.18v-9.53c0-.27.13-.4.4-.4h1.92c.27,0,.4.13.4.4v10.48c0,1.48-.53,1.9-1.64,1.9h-1.57c-1.11,0-1.39-.11-2.12-1.08l-6.81-8.91c-.07-.09-.13-.13-.24-.13h-.16c-.11,0-.15.06-.15.18v9.53c0,.27-.13.4-.4.4h-1.92c-.27,0-.42-.13-.42-.4v-10.48c0-1.48.53-1.9,1.64-1.9h1.61Z"/>
      <path class="cls-5" d="M137.8,11.2c.93,0,1.5.29,2.1,1.39l6.05,10.98c.13.24.07.42-.22.42h-2.32c-.24,0-.33-.05-.42-.24l-1.3-2.36h-8.58l-1.26,2.36c-.09.18-.2.24-.42.24h-2.37c-.31,0-.37-.18-.24-.42l5.99-10.98c.6-1.1,1.15-1.39,1.92-1.39h1.08ZM134.25,19.27h6.28l-2.9-5.35c-.05-.09-.11-.13-.2-.13h-.11c-.09,0-.15.04-.2.13l-2.87,5.35Z"/>
      <path class="cls-5" d="M83.18,31.48c.27,0,.42.13.42.4v1.74c0,.27-.15.4-.42.4h-7.98c-1.9,0-2.43.57-2.43,2.48v.18h10.32c.27,0,.4.13.4.4v1.44c0,.27-.13.4-.4.4h-10.32v.31c0,1.92.53,2.48,2.43,2.48h7.98c.27,0,.42.13.42.4v1.74c0,.27-.15.4-.42.4h-8.04c-3.69,0-5.11-1.32-5.11-4.82v-3.14c0-3.51,1.42-4.82,5.11-4.82h8.04Z"/>
      <path class="cls-5" d="M88.09,31.48c.27,0,.4.13.4.4v4.86h2.58c1.15,0,1.5-.13,2.03-.82l3.14-4.2c.13-.16.2-.24.53-.24h2.26c.31,0,.37.27.24.44l-3.54,4.58c-.42.55-.75.93-1.1,1.22.49.31.93.73,1.39,1.32l3.74,4.75c.09.13.13.47-.24.47h-2.34c-.31,0-.38-.07-.51-.24l-3.36-4.35c-.49-.64-.91-.82-2.05-.82h-2.78v5c0,.27-.13.4-.4.4h-1.97c-.27,0-.42-.13-.42-.4v-11.98c0-.27.15-.4.42-.4h1.97Z"/>
      <path class="cls-5" d="M111.66,31.48c2.79,0,3.93,1.3,3.93,3.76v1.04c0,2.08-.8,3.31-2.72,3.65l3.12,3.87c.11.13.09.46-.24.46h-2.36c-.31,0-.4-.07-.51-.24l-2.89-3.8h-5.9v3.63c0,.27-.13.4-.4.4h-1.97c-.27,0-.42-.13-.42-.4v-11.84c0-.37.18-.55.55-.55h9.81ZM104.1,38h7c1.24,0,1.7-.53,1.7-1.63v-.77c0-1.1-.46-1.63-1.7-1.63h-6.76c-.16,0-.24.07-.24.22v3.8Z"/>
      <path class="cls-5" d="M125.95,31.48c.93,0,1.5.29,2.1,1.39l6.05,10.98c.13.24.07.42-.22.42h-2.32c-.24,0-.33-.05-.42-.24l-1.3-2.36h-8.58l-1.26,2.36c-.09.18-.2.24-.42.24h-2.37c-.31,0-.37-.18-.24-.42l5.99-10.98c.6-1.1,1.15-1.39,1.92-1.39h1.08ZM122.4,39.55h6.28l-2.9-5.35c-.05-.09-.11-.13-.2-.13h-.11c-.09,0-.15.04-.2.13l-2.87,5.35Z"/>
      <path class="cls-5" d="M138.9,31.48c1.17,0,1.42.15,2.12,1.08l6.79,8.91c.05.09.13.13.24.13h.16c.09,0,.15-.05.15-.18v-9.53c0-.27.13-.4.4-.4h1.92c.27,0,.4.13.4.4v10.48c0,1.48-.53,1.9-1.64,1.9h-1.57c-1.11,0-1.39-.11-2.12-1.08l-6.81-8.91c-.07-.09-.13-.13-.24-.13h-.16c-.11,0-.15.06-.15.18v9.54c0,.27-.13.4-.4.4h-1.92c-.27,0-.42-.13-.42-.4v-10.48c0-1.48.53-1.9,1.64-1.9h1.61Z"/>
      <path class="cls-5" d="M161.63,31.48c.93,0,1.5.29,2.1,1.39l6.05,10.98c.13.24.07.42-.22.42h-2.32c-.24,0-.33-.05-.42-.24l-1.3-2.36h-8.58l-1.26,2.36c-.09.18-.2.24-.42.24h-2.37c-.31,0-.37-.18-.24-.42l5.99-10.98c.6-1.1,1.15-1.39,1.92-1.39h1.08ZM158.08,39.55h6.28l-2.9-5.35c-.05-.09-.11-.13-.2-.13h-.11c-.09,0-.15.04-.2.13l-2.87,5.35Z"/>
      <path class="cls-5" d="M103.43,51.76c3.96,0,5.59,1.59,5.59,5.15v2.48c0,3.56-1.63,5.15-5.59,5.15h-8.55c-.37,0-.55-.18-.55-.55v-11.69c0-.37.18-.55.55-.55h8.55ZM97.13,61.77c0,.16.07.24.24.24h5.99c2.16,0,2.87-.69,2.87-2.85v-2.01c0-2.16-.71-2.85-2.87-2.85h-5.99c-.16,0-.24.07-.24.25v7.21Z"/>
      <path class="cls-5" d="M121.92,51.76c3.71,0,5.11,1.31,5.11,4.82v3.14c0,3.51-1.41,4.82-5.11,4.82h-5.64c-3.69,0-5.11-1.32-5.11-4.82v-3.14c0-3.51,1.42-4.82,5.11-4.82h5.64ZM113.95,59.52c0,1.92.55,2.48,2.43,2.48h5.42c1.88,0,2.43-.57,2.43-2.48v-2.74c0-1.92-.55-2.48-2.43-2.48h-5.42c-1.88,0-2.43.57-2.43,2.48v2.74ZM117.44,48.38c.27,0,.4.11.4.33v1.74c0,.22-.13.33-.4.33h-1.79c-.27,0-.4-.11-.4-.33v-1.74c0-.22.13-.33.4-.33h1.79ZM122.54,48.38c.27,0,.42.11.42.33v1.74c0,.22-.15.33-.42.33h-1.79c-.27,0-.4-.11-.4-.33v-1.74c0-.22.13-.33.4-.33h1.79Z"/>
      <path class="cls-5" d="M132.55,51.76c1.17,0,1.42.15,2.12,1.08l6.79,8.91c.05.09.13.13.24.13h.16c.09,0,.15-.05.15-.18v-9.53c0-.27.13-.4.4-.4h1.92c.27,0,.4.13.4.4v10.48c0,1.48-.53,1.9-1.64,1.9h-1.57c-1.11,0-1.39-.11-2.12-1.08l-6.81-8.91c-.07-.09-.13-.13-.24-.13h-.16c-.11,0-.15.06-.15.18v9.53c0,.27-.13.4-.4.4h-1.92c-.27,0-.42-.13-.42-.4v-10.48c0-1.48.53-1.9,1.64-1.9h1.61Z"/>
    </g>
  </g>
</svg>