<?xml version="1.0" encoding="UTF-8"?>
<svg id="Layer_2" data-name="Layer 2" xmlns="http://www.w3.org/2000/svg" xmlns:xlink="http://www.w3.org/1999/xlink" viewBox="0 0 718.67 1150.97">
  <defs>
    <style>
      .cls-1 {
        letter-spacing: 0em;
      }

      .cls-2 {
        fill: #241e33;
      }

      .cls-3 {
        fill: url(#_ÂÁ_Ï_ÌÌ_È_ËÂÌÚ_4-4);
      }

      .cls-4 {
        fill: url(#_ÂÁ_Ï_ÌÌ_È_ËÂÌÚ_4-5);
      }

      .cls-5 {
        fill: url(#_ÂÁ_Ï_ÌÌ_È_ËÂÌÚ_4-2);
      }

      .cls-6 {
        fill: url(#_ÂÁ_Ï_ÌÌ_È_ËÂÌÚ_4-3);
      }

      .cls-7 {
        fill: url(#_ÂÁ_Ï_ÌÌ_È_ËÂÌÚ_4-6);
      }

      .cls-8 {
        fill: url(#_ÂÁ_Ï_ÌÌ_È_ËÂÌÚ_3-2);
      }

      .cls-9 {
        fill: url(#_ÂÁ_Ï_ÌÌ_È_ËÂÌÚ_3-3);
      }

      .cls-10 {
        fill: url(#_ÂÁ_Ï_ÌÌ_È_ËÂÌÚ_3-4);
      }

      .cls-11 {
        fill: url(#linear-gradient);
      }

      .cls-12 {
        fill: url(#_ÂÁ_Ï_ÌÌ_È_ËÂÌÚ_6);
      }

      .cls-13 {
        fill: url(#_ÂÁ_Ï_ÌÌ_È_ËÂÌÚ_3);
      }

      .cls-14 {
        fill: url(#_ÂÁ_Ï_ÌÌ_È_ËÂÌÚ_4);
      }

      .cls-15 {
        font-family: ConthraxSb-Regular, Conthrax;
        font-size: 21px;
      }

      .cls-15, .cls-16 {
        fill: #fff;
      }

      .cls-17 {
        fill: #171222;
      }

      .cls-18 {
        fill: #00134a;
      }

      .cls-19 {
        letter-spacing: -.04em;
      }

      .cls-20 {
        fill: #3c354f;
      }

      .cls-21 {
        fill: #302942;
      }
    </style>
    <radialGradient id="_ÂÁ_Ï_ÌÌ_È_ËÂÌÚ_3" data-name="¡ÂÁ˚ÏˇÌÌ˚È „‡‰ËÂÌÚ 3" cx="-59130.35" cy="-1474.71" fx="-59130.35" fy="-1474.71" r="2382.18" gradientTransform="translate(6223.57 172.65) scale(.1)" gradientUnits="userSpaceOnUse">
      <stop offset="0" stop-color="#241883"/>
      <stop offset=".35" stop-color="#241a60"/>
      <stop offset=".75" stop-color="#241d3f"/>
      <stop offset=".97" stop-color="#241e33"/>
    </radialGradient>
    <radialGradient id="_ÂÁ_Ï_ÌÌ_È_ËÂÌÚ_3-2" data-name="¡ÂÁ˚ÏˇÌÌ˚È „‡‰ËÂÌÚ 3" cx="-59148.93" cy="-11306.4" fx="-59148.93" fy="-11306.4" r="2382.18" gradientTransform="translate(6223.57 -59.96) scale(.1 -.1)" xlink:href="#_ÂÁ_Ï_ÌÌ_È_ËÂÌÚ_3"/>
    <linearGradient id="_ÂÁ_Ï_ÌÌ_È_ËÂÌÚ_4" data-name="¡ÂÁ˚ÏˇÌÌ˚È „‡‰ËÂÌÚ 4" x1="-63.13" y1="565.53" x2="747.06" y2="564.35" gradientUnits="userSpaceOnUse">
      <stop offset="0" stop-color="#4d86ff"/>
      <stop offset=".03" stop-color="#587efa"/>
      <stop offset=".14" stop-color="#8562e6"/>
      <stop offset=".24" stop-color="#a84cd7"/>
      <stop offset=".34" stop-color="#c23ccc"/>
      <stop offset=".44" stop-color="#d133c6"/>
      <stop offset=".51" stop-color="#d730c4"/>
      <stop offset=".58" stop-color="#d233c6"/>
      <stop offset=".67" stop-color="#c33ccc"/>
      <stop offset=".76" stop-color="#ab4ad6"/>
      <stop offset=".86" stop-color="#8a5fe4"/>
      <stop offset=".96" stop-color="#6079f6"/>
      <stop offset="1" stop-color="#4d86ff"/>
    </linearGradient>
    <linearGradient id="_ÂÁ_Ï_ÌÌ_È_ËÂÌÚ_4-2" data-name="¡ÂÁ˚ÏˇÌÌ˚È „‡‰ËÂÌÚ 4" x1="-35.2" y1="563.74" x2="775" y2="562.56" xlink:href="#_ÂÁ_Ï_ÌÌ_È_ËÂÌÚ_4"/>
    <linearGradient id="_ÂÁ_Ï_ÌÌ_È_ËÂÌÚ_4-3" data-name="¡ÂÁ˚ÏˇÌÌ˚È „‡‰ËÂÌÚ 4" x1="-27.9" y1="1073.92" x2="733.38" y2="1072.81" xlink:href="#_ÂÁ_Ï_ÌÌ_È_ËÂÌÚ_4"/>
    <linearGradient id="_ÂÁ_Ï_ÌÌ_È_ËÂÌÚ_4-4" data-name="¡ÂÁ˚ÏˇÌÌ˚È „‡‰ËÂÌÚ 4" x1="15180.67" y1="1073.36" x2="15941.95" y2="1072.25" gradientTransform="translate(15927.26) rotate(-180) scale(1 -1)" xlink:href="#_ÂÁ_Ï_ÌÌ_È_ËÂÌÚ_4"/>
    <radialGradient id="_ÂÁ_Ï_ÌÌ_È_ËÂÌÚ_3-3" data-name="¡ÂÁ˚ÏˇÌÌ˚È „‡‰ËÂÌÚ 3" cx="-59107.89" cy="8635.84" fx="-59107.89" fy="8635.84" r="417.6" xlink:href="#_ÂÁ_Ï_ÌÌ_È_ËÂÌÚ_3"/>
    <linearGradient id="_ÂÁ_Ï_ÌÌ_È_ËÂÌÚ_6" data-name="¡ÂÁ˚ÏˇÌÌ˚È „‡‰ËÂÌÚ 6" x1="265.65" y1="1081.42" x2="452.23" y2="1081.42" gradientUnits="userSpaceOnUse">
      <stop offset="0" stop-color="#d730c4"/>
      <stop offset=".14" stop-color="#d133c6"/>
      <stop offset=".32" stop-color="#c03dcd"/>
      <stop offset=".53" stop-color="#a54ed8"/>
      <stop offset=".75" stop-color="#8065e9"/>
      <stop offset=".98" stop-color="#5083fd"/>
      <stop offset="1" stop-color="#4d86ff"/>
    </linearGradient>
    <linearGradient id="linear-gradient" x1="360.07" y1="1135.83" x2="360.07" y2="1027.25" gradientUnits="userSpaceOnUse">
      <stop offset="0" stop-color="#0bf"/>
      <stop offset=".44" stop-color="#056ba4" stop-opacity=".55"/>
      <stop offset="1" stop-color="#0d0934" stop-opacity="0"/>
    </linearGradient>
    <linearGradient id="_ÂÁ_Ï_ÌÌ_È_ËÂÌÚ_4-5" data-name="¡ÂÁ˚ÏˇÌÌ˚È „‡‰ËÂÌÚ 4" x1="312.73" y1="1081.06" x2="407.42" y2="1081.06" xlink:href="#_ÂÁ_Ï_ÌÌ_È_ËÂÌÚ_4"/>
    <radialGradient id="_ÂÁ_Ï_ÌÌ_È_ËÂÌÚ_3-4" data-name="¡ÂÁ˚ÏˇÌÌ˚È „‡‰ËÂÌÚ 3" cx="-53506.4" cy="-1647.29" fx="-53506.4" fy="-1647.29" r="640.2" gradientTransform="translate(7060.83 172.65) scale(.13 .1)" xlink:href="#_ÂÁ_Ï_ÌÌ_È_ËÂÌÚ_3"/>
    <linearGradient id="_ÂÁ_Ï_ÌÌ_È_ËÂÌÚ_4-6" data-name="¡ÂÁ˚ÏˇÌÌ˚È „‡‰ËÂÌÚ 4" x1="-63.34" y1="38.91" x2="774.34" y2="37.68" xlink:href="#_ÂÁ_Ï_ÌÌ_È_ËÂÌÚ_4"/>
  </defs>
  <g id="Layer_1-2" data-name="Layer 1">
    <g>
      <polygon class="cls-2" points="673.6 35.33 357.84 35.33 357.84 34.6 44.29 34.6 12.8 76.33 12.8 1059.48 271.12 1059.48 284.59 1072.53 355.2 1072.53 355.2 1073.27 433.29 1073.27 446.77 1060.21 705.09 1060.21 705.09 77.07 673.6 35.33"/>
      <path class="cls-13" d="M92.34,38.29c11.09,107.39,125.71,191.83,265.49,191.83s254.4-84.44,265.49-191.83H92.34Z"/>
      <path class="cls-8" d="M90.5,1084.11c11.09-107.39,125.71-191.83,265.49-191.83s254.4,84.44,265.49,191.83H90.5Z"/>
      <polyline class="cls-17" points="494.76 36.09 671.21 36.09 703.64 79.07 703.64 146.91 703.64 991.56 703.64 1054.49 685.59 1095.51 432.7 1095.51 458.17 1045.53 699.91 1045.53 699.91 987.84 681.57 969.6 681.57 164.76 699.91 146.52 699.91 80.32 669.63 40.37 495.04 40.37"/>
      <polygon class="cls-20" points="684.88 966.98 706.96 988.93 706.96 144.29 684.88 166.24 684.88 966.98"/>
      <polygon class="cls-14" points="684.88 950.4 706.96 972.36 706.96 156.46 684.88 178.41 684.88 950.4"/>
      <polyline class="cls-17" points="223.17 34.18 46.72 34.18 14.29 77.15 14.29 145 14.29 989.64 14.29 1052.57 32.34 1093.6 284.13 1093.87 259.76 1045.53 18.02 1045.53 18.02 989.21 36.36 970.97 36.36 162.85 18.02 144.6 18.02 78.4 47.21 39.83 221.8 39.83"/>
      <polygon class="cls-20" points="14.66 1059.48 10.93 1059.48 10.93 75.71 43.36 32.73 235.45 32.73 235.45 36.47 45.22 36.47 14.66 76.96 14.66 1059.48"/>
      <polygon class="cls-20" points="33 966.24 10.93 988.2 10.93 143.55 33 165.51 33 966.24"/>
      <polygon class="cls-5" points="33 949.67 10.93 971.62 10.93 155.72 33 177.68 33 949.67"/>
      <g>
        <polygon class="cls-17" points="21.22 984.71 36.2 969.8 36.2 1023 61.67 1023 74.73 1036.35 93.7 1036.35 101.45 1046.18 23.52 1046.18 21.22 984.71"/>
        <polygon class="cls-20" points="18.02 987.84 33 972.94 33 1026.13 58.47 1026.13 71.53 1039.49 90.5 1039.49 95.95 1045.53 18.02 1045.53 18.02 987.84"/>
      </g>
      <g>
        <polygon class="cls-17" points="696.97 984.84 681.99 969.93 681.99 1023.13 656.52 1023.13 643.46 1036.48 624.49 1036.48 616.74 1046.31 694.67 1046.31 696.97 984.84"/>
        <polygon class="cls-20" points="700.17 987.97 685.19 973.07 685.19 1026.26 659.72 1026.26 646.66 1039.62 627.69 1039.62 622.24 1045.66 700.17 1045.66 700.17 987.97"/>
      </g>
      <g>
        <polygon class="cls-17" points="699.91 83.06 682.16 100.6 681.57 167.5 699.91 149.26 699.91 83.06"/>
        <polygon class="cls-20" points="684.88 160.64 699.91 145.7 699.91 129.16 684.88 144.9 684.88 160.64"/>
        <polygon class="cls-20" points="684.88 139.41 699.91 124.47 699.91 107.93 684.88 123.67 684.88 139.41"/>
        <polygon class="cls-20" points="684.88 118.18 699.91 103.24 699.91 86.7 684.88 102.44 684.88 118.18"/>
      </g>
      <g>
        <polygon class="cls-17" points="17.94 82.78 35.69 100.88 36.28 167.5 17.94 149.26 17.94 82.78"/>
        <polygon class="cls-20" points="32.96 160.64 17.94 145.7 17.94 129.16 32.96 144.9 32.96 160.64"/>
        <polygon class="cls-20" points="32.96 139.41 17.94 124.47 17.94 107.93 32.96 123.67 32.96 139.41"/>
        <polygon class="cls-20" points="32.96 118.18 17.94 103.24 17.94 86.7 32.96 102.44 32.96 118.18"/>
      </g>
      <polygon class="cls-17" points="646.66 1039.62 684.88 1039.62 684.88 1036.63 648.24 1036.63 646.66 1039.62"/>
      <polygon class="cls-17" points="72.08 1039.49 33.31 1039.49 33.31 1036.22 69.95 1036.22 72.08 1039.49"/>
      <g>
        <path class="cls-20" d="M281.52,1099.35H23.53L.21,1052.09c-.65-1.32.31-2.87,1.79-2.87h254.79l24.74,50.14Z"/>
        <path class="cls-6" d="M273.83,1093.99H27.58l-18.25-38.15c-.56-1.14.27-2.48,1.54-2.48h243.49l19.47,40.63Z"/>
      </g>
      <g>
        <path class="cls-20" d="M437.15,1098.8h257.99l23.32-47.26c.65-1.32-.31-2.87-1.79-2.87h-254.79l-24.74,50.14Z"/>
        <path class="cls-3" d="M444.84,1093.44h246.25l18.25-38.15c.56-1.14-.27-2.48-1.54-2.48h-243.49l-19.47,40.63Z"/>
      </g>
      <g>
        <path class="cls-20" d="M434.53,1105.96h-151.17c-.27,0-.52-.22-.63-.57l-22.04-45.6h196.52l-22.04,45.6c-.12.35-.36.57-.63.57Z"/>
        <path class="cls-2" d="M433.46,1100.29h-149.04c-.26,0-.51-.2-.62-.51l-18.15-37.24h186.58l-18.15,37.24c-.11.31-.35.51-.62.51Z"/>
        <path class="cls-9" d="M313.52,1062.55c1.94,18.83,22.04,33.63,46.54,33.63s44.6-14.8,46.54-33.63h-93.08Z"/>
        <g>
          <path class="cls-2" d="M433.46,1100.29h-149.04c-.26,0-.51-.2-.62-.51l-18.15-37.24h186.58l-18.15,37.24c-.11.31-.35.51-.62.51Z"/>
          <path class="cls-12" d="M450.92,1063.37l-17.57,36.06-.02.04s-148.76,0-148.76,0c0,0-.02-.05-.02-.05l-17.57-36.06h183.95ZM452.23,1062.55h-186.58l18.15,37.24c.11.31.35.51.62.51h149.04c.26,0,.51-.2.62-.51l18.15-37.24h0Z"/>
        </g>
      </g>
      <g>
        <g>
          <path class="cls-18" d="M418.53,1040.57l-.1-1.79-1.79-.16c-33.3-3.02-55.11-26.98-55.33-27.22l-1.24-1.44-1.24,1.44c-.22.24-22.03,24.2-55.33,27.22l-1.78.16-.1,1.79c-.01.25-1.33,25.23,5.07,50.9,8.59,34.44,27.03,54.51,53.35,58.05h.03s.04,0,.04,0c26.32-3.54,44.76-23.61,53.35-58.05,6.4-25.67,5.09-50.65,5.07-50.9Z"/>
          <path class="cls-20" d="M360.07,1150.97l-.29-.04c-26.88-3.61-45.74-24.06-54.48-59.11-6.36-25.53-5.16-50.28-5.11-51.32l.17-3.03,3.01-.27c32.69-2.97,54.18-26.52,54.39-26.75l2.31-2.69,2.33,2.71c.2.22,21.61,23.76,54.37,26.73l3.02.27.17,3.02c.01.24,1.32,25.54-5.11,51.33-8.74,35.05-27.6,55.49-54.54,59.12l-.22.03ZM303.08,1040.1l-.03.56c-.05,1.02-1.23,25.35,5.03,50.48,8.41,33.75,26.39,53.44,52,56.95,25.63-3.54,43.59-23.23,51.99-56.95,6.37-25.57,5.05-50.22,5.03-50.47l-.03-.56-.55-.05c-33.72-3.06-56.06-27.46-56.27-27.7l-.17-.19-.16.18c-.23.26-22.25,24.63-56.28,27.72l-.55.05Z"/>
        </g>
        <path class="cls-18" d="M405.54,1051.07l-.08-1.39-1.39-.13c-25.9-2.35-42.87-20.99-43.04-21.17l-.96-1.13-.96,1.13c-.17.19-17.14,18.82-43.04,21.17l-1.39.13-.08,1.39c-.01.19-1.03,19.63,3.94,39.59,6.68,26.79,21.02,42.4,41.5,45.15h0s.02,0,.03,0c0,0,.02,0,.03,0h0c20.47-2.77,34.82-18.37,41.5-45.16,4.98-19.96,3.96-39.4,3.94-39.59Z"/>
        <path class="cls-11" d="M405.54,1051.07l-.08-1.39-1.39-.13c-25.9-2.35-42.87-20.99-43.04-21.17l-.96-1.13-.96,1.13c-.17.19-17.14,18.82-43.04,21.17l-1.39.13-.08,1.39c-.01.19-1.03,19.63,3.94,39.59,6.68,26.79,21.02,42.4,41.5,45.15h0s.02,0,.03,0c0,0,.02,0,.03,0h0c20.47-2.77,34.82-18.37,41.5-45.16,4.98-19.96,3.96-39.4,3.94-39.59Z"/>
        <path class="cls-4" d="M360.11,1137.62l-.28-.03c-21.28-2.86-36.14-18.94-43.01-46.5-5.02-20.14-4-39.95-3.99-40.14l.16-2.91,2.92-.27c25.02-2.27,41.71-20.41,41.88-20.59l2.29-2.67,2.32,2.71c.65.71,16.92,18.3,41.84,20.56l2.93.27.16,2.93c.01.2,1.05,19.88-4,40.12-6.87,27.55-21.73,43.63-42.99,46.49l-.23.03ZM316.38,1051.32c-.09,1.81-.81,20.01,3.9,38.91,6.46,25.92,20.22,41.06,39.79,43.79,19.57-2.72,33.33-17.86,39.79-43.79,4.67-18.74,3.98-37.1,3.9-38.91-24.48-2.28-41.03-18.58-43.69-21.36-2.74,2.83-19.49,19.1-43.69,21.36Z"/>
      </g>
      <g>
        <g>
          <polygon class="cls-21" points="422.13 11.68 295.75 11.68 306.73 0 411.15 0 422.13 11.68"/>
          <g>
            <polygon class="cls-21" points="324.35 64.9 247.1 64.9 258.08 76.58 313.37 76.58 324.35 64.9"/>
            <polygon class="cls-21" points="470.79 64.9 393.54 64.9 404.52 76.58 459.81 76.58 470.79 64.9"/>
          </g>
        </g>
        <polygon class="cls-20" points="486.96 4.59 230.93 4.59 211.48 21.91 210.91 22.61 210.91 53.97 230.93 71.99 486.96 71.99 506.41 54.68 506.97 53.97 506.97 22.61 486.96 4.59"/>
        <polygon class="cls-2" points="232.62 68.68 214.51 52.92 214.51 23.83 232.62 8.07 485.27 8.07 503.38 23.83 503.38 52.92 485.27 68.68 232.62 68.68"/>
        <path class="cls-10" d="M258.72,8.07c3.77,28.86,42.72,51.55,90.22,51.55s86.46-22.69,90.22-51.55h-180.45Z"/>
        <path class="cls-7" d="M235.33,11.06l-16.64,13.95v26.56l16.64,13.95h247.09l16.78-14.13v-26.19l-16.78-14.13h-247.09ZM498.13,51.05l-16.22,13.47h-246.09l-16.07-13.28v-25.89l16.07-13.28h246.09l16.22,13.47v25.51Z"/>
        <g>
          <text class="cls-15" transform="translate(271.87 44.4)"><tspan x="0" y="0">SİBER M</tspan><tspan class="cls-19" x="112.26" y="0">A</tspan><tspan class="cls-1" x="131.9" y="0">CERA</tspan></text>
          <g>
            <path class="cls-16" d="M245.56,38.84c0,3.07,2.49,5.56,5.56,5.56s5.56-2.49,5.56-5.56-2.49-5.56-5.56-5.56-5.56,2.49-5.56,5.56ZM254.18,36.59c.31.31.32.81.01,1.12l-3.28,3.34c-.33.33-.86.34-1.19.01l-1.65-1.62c-.31-.31-.32-.81-.01-1.12.31-.31.81-.32,1.12-.01l1.13,1.11,2.76-2.82c.31-.31.81-.32,1.12-.01Z"/>
            <path class="cls-16" d="M250.59,25.94c-2.99,1.49-6.28,2.27-9.62,2.27v11.02c0,4.14,2.34,7.93,6.04,9.78l4.12,2.06,4.12-2.06c3.7-1.85,6.04-5.64,6.04-9.78v-11.02c-3.34,0-6.63-.78-9.62-2.27l-.54-.27-.54.27ZM257.83,38.84c0,3.71-3,6.71-6.71,6.71s-6.71-3-6.71-6.71,3-6.71,6.71-6.71,6.71,3,6.71,6.71Z"/>
            <path class="cls-16" d="M262.53,26.69c-3.69,0-7.38-.87-10.68-2.52l-.73-.36-.73.36c-3.3,1.65-6.99,2.52-10.68,2.52h-.28v12.66c0,4.79,2.66,9.09,6.94,11.23l4.75,2.37,4.75-2.37c4.28-2.14,6.94-6.44,6.94-11.23v-12.66h-.28ZM262.25,39.34c0,4.57-2.54,8.69-6.63,10.73l-4.5,2.25-4.5-2.25c-4.09-2.05-6.63-6.16-6.63-10.73v-12.1c3.68-.04,7.36-.93,10.65-2.58l.48-.24.48.24c3.29,1.65,6.97,2.54,10.65,2.58v12.1Z"/>
          </g>
        </g>
      </g>
    </g>
  </g>
</svg>